<svg id="Layer_1" data-name="Layer 1" xmlns="http://www.w3.org/2000/svg" viewBox="0 0 35.9 35.9"><defs><style>.cls-1,.cls-3{fill:#fff;}.cls-2,.cls-4{fill:brown;}.cls-3,.cls-4{stroke:brown;stroke-miterlimit:10;stroke-width:0.75px;}</style></defs><title>facebook red sword (mini)</title><path class="cls-1" d="M20,36.5A15.95,15.95,0,1,1,36,20.55,16,16,0,0,1,20,36.5Z" transform="translate(-2.1 -2.6)"/><path class="cls-2" d="M20,6.6A13.95,13.95,0,1,1,6.1,20.55,14,14,0,0,1,20,6.6m0-4A17.95,17.95,0,1,0,38,20.55,17.95,17.95,0,0,0,20,2.6Z" transform="translate(-2.1 -2.6)"/><path class="cls-2" d="M18.59,36.79A9.57,9.57,0,0,1,16.73,36c-.49-.25-.91-.49-1.26-.68A9,9,0,0,0,16,34.09a11.68,11.68,0,0,0,.42-1.91,19.22,19.22,0,0,0,.19-3.32,13.78,13.78,0,0,0-.23-2.4,10.93,10.93,0,0,0-.47-1.66c-.07-.21-.15-.43-.22-.66-.29-.91-.53-1.62-.72-2.19-.5-1.48-.62-1.87-.44-2.13A1.79,1.79,0,0,1,16,19.27a2.8,2.8,0,0,1,1.59.46,1.29,1.29,0,0,1,.58.76c0,.12,0,.16-.11.37a5,5,0,0,0-.34.84,8.64,8.64,0,0,0-.32,1.82c0,.25,0,.48,0,.7l0,.39c0,.42,0,.75,0,.8a8.42,8.42,0,0,0,.15,1.43c0,.09.29,2.15.29,2.15.19,1.48.28,2.68.37,3.85.05.71.07,1,.08,1.21s0,.31,0,.59c.08.66.18,1.16.26,1.54S18.57,36.65,18.59,36.79Z" transform="translate(-2.1 -2.6)"/><path class="cls-2" d="M16,19.64h0a2.41,2.41,0,0,1,1.37.39c.1.07.39.29.43.5a1.08,1.08,0,0,1-.07.16,5.35,5.35,0,0,0-.37.9,8.93,8.93,0,0,0-.33,1.9c0,.26,0,.5,0,.73s0,.26,0,.38c0,.43,0,.76,0,.81a8.88,8.88,0,0,0,.16,1.53c0,.08.1.77.28,2.11s.28,2.67.37,3.83c.05.69.07,1,.08,1.2s0,.32.05.62c.08.66.18,1.16.26,1.53-.27-.12-.66-.3-1.2-.57l-.94-.5a9.34,9.34,0,0,0,.37-.93,11.56,11.56,0,0,0,.44-2,19.58,19.58,0,0,0,.2-3.38,14,14,0,0,0-.23-2.46,11.44,11.44,0,0,0-.49-1.71c-.07-.21-.15-.42-.22-.65-.29-.91-.53-1.63-.72-2.2a6.66,6.66,0,0,1-.49-1.8A1.46,1.46,0,0,1,16,19.64m0-.75a2.14,2.14,0,0,0-1.76.7c-.41.58,0,1.21,1.11,4.66A17.82,17.82,0,0,1,16,26.53a13.38,13.38,0,0,1,.22,2.34A18.77,18.77,0,0,1,16,32.13,10.32,10.32,0,0,1,15.62,34,8.59,8.59,0,0,1,15,35.44c.4.23.94.54,1.59.88a6.46,6.46,0,0,0,2.14.87.2.2,0,0,0,.14,0c.29-.24,0-.85-.25-2.55-.07-.53,0-.35-.12-1.78-.09-1.18-.18-2.39-.37-3.88s-.27-2.09-.28-2.12a8.3,8.3,0,0,1-.15-1.41s0-.37,0-.79c0-.11,0-.23,0-.36s0-.44,0-.7a8.24,8.24,0,0,1,.3-1.75c.27-.86.52-.95.46-1.37a1.63,1.63,0,0,0-.73-1A3.16,3.16,0,0,0,16,18.89Z" transform="translate(-2.1 -2.6)"/><path class="cls-2" d="M16.83,26.67a.55.55,0,0,1-.15,0c-.33-.11-.46-.79-.62-1.66a11.64,11.64,0,0,0-1.29-3.92,8.85,8.85,0,0,0-.48-.74,6.67,6.67,0,0,0,.65-4.4A5.68,5.68,0,0,1,15,13.35a3.8,3.8,0,0,1,3-2.91,4.91,4.91,0,0,1,1.22-.15,5.76,5.76,0,0,1,1.86.33,5.83,5.83,0,0,1,2.12,1.25A5.67,5.67,0,0,1,24.12,13l-.05.41a4.84,4.84,0,0,0-3.35-2.42,4.45,4.45,0,0,0-.77-.07,5,5,0,0,0-2.85.94,3.9,3.9,0,0,0-1.3,1.38,3.85,3.85,0,0,0-.45,1.65A5,5,0,0,0,15.73,17a7.64,7.64,0,0,0,.62,1.33,4.23,4.23,0,0,0,.71,1,4.78,4.78,0,0,0,.87.66l.32.19a8.92,8.92,0,0,0-.37.9A12.12,12.12,0,0,0,17.3,25c0,.81,0,1.52-.3,1.65A.37.37,0,0,1,16.83,26.67Z" transform="translate(-2.1 -2.6)"/><path class="cls-2" d="M18.45,10.74a5.77,5.77,0,0,0-1.56.77,4.44,4.44,0,0,0-1.26,1.24,3.31,3.31,0,0,1,.7-1,3.71,3.71,0,0,1,1.78-.92l.34-.07m-3,6.52A8.21,8.21,0,0,0,16,18.53a4.58,4.58,0,0,0,.77,1.05,5.1,5.1,0,0,0,.93.71l0,0q-.13.31-.24.62a12.44,12.44,0,0,0-.6,4,5.38,5.38,0,0,1-.12,1.32h0a4.27,4.27,0,0,1-.38-1.38,12,12,0,0,0-1.34-4c-.12-.2-.24-.4-.37-.59a7.31,7.31,0,0,0,.51-1.42,6.43,6.43,0,0,0,.19-1.62m3.81-7.33a5.27,5.27,0,0,0-1.31.16,4.17,4.17,0,0,0-3.27,3.17c-.62,2.14.4,3.2-.16,5.44a6.62,6.62,0,0,1-.67,1.66,8.32,8.32,0,0,1,.6.9c1.59,2.74,1,5.4,2.13,5.75a.92.92,0,0,0,.27,0,.75.75,0,0,0,.33-.07c1-.46.06-2.89,1.07-5.78A8.6,8.6,0,0,1,18.75,20a6.16,6.16,0,0,1-.62-.34,4.39,4.39,0,0,1-.8-.61,3.88,3.88,0,0,1-.65-.9,7.25,7.25,0,0,1-.58-1.25,4.76,4.76,0,0,1-.38-2,3.5,3.5,0,0,1,.41-1.5,3.56,3.56,0,0,1,1.19-1.25A4.68,4.68,0,0,1,20,11.25a4.11,4.11,0,0,1,.71.06,4.45,4.45,0,0,1,2.19,1.09,4.67,4.67,0,0,1,1.41,2.53l.26-2.06a6.06,6.06,0,0,0-1-1.28,6.22,6.22,0,0,0-2.26-1.33,6.13,6.13,0,0,0-2-.35Z" transform="translate(-2.1 -2.6)"/><path class="cls-2" d="M9.13,21.59a21.15,21.15,0,0,1,3.14-.95q.57-.12,1.14-.21c-.43.14-.94.34-1.61.59a4.91,4.91,0,0,0-1.48.78,4.19,4.19,0,0,0-.68.7ZM23.66,22a3.39,3.39,0,0,0-.62-.62,4.34,4.34,0,0,0-1.7-.72,3.15,3.15,0,0,0-.69-.09,7.05,7.05,0,0,1-.9-.1l-.56-.1a3.91,3.91,0,0,0-.8-.1h-.23A3,3,0,0,0,17,20.6a1.7,1.7,0,0,0-.43.3l-.17.07a1.23,1.23,0,0,1-.51-.24,3.42,3.42,0,0,0-1-.47h0q.9-.08,1.81-.08c.92,0,1.66.06,2.05.09a23.27,23.27,0,0,1,5,1Z" transform="translate(-2.1 -2.6)"/><path class="cls-2" d="M16.41,20.55l0,0,0,0h.07M9.84,21.73l-.13.13,0-.07.17-.06m6.83-1.93a21.14,21.14,0,0,0-4.49.48,21.44,21.44,0,0,0-3.6,1.13l1,1.81a3.89,3.89,0,0,1,.94-1.12,4.58,4.58,0,0,1,1.38-.72,8.91,8.91,0,0,1,2.57-.79,1.22,1.22,0,0,1,.3,0c.74.19,1.14.72,1.61.72a.64.64,0,0,0,.2,0c.22-.07.19-.19.56-.37a2.57,2.57,0,0,1,1-.25h.2a8.7,8.7,0,0,1,1.3.19c1,.16,1,0,1.56.19a4,4,0,0,1,1.56.66A3.4,3.4,0,0,1,24,23.59L24.06,21a23.54,23.54,0,0,0-5.3-1.07c-.46,0-1.18-.1-2.08-.1Z" transform="translate(-2.1 -2.6)"/><path class="cls-3" d="M23.44,28.69" transform="translate(-2.1 -2.6)"/><path class="cls-4" d="M14.19,26.63" transform="translate(-2.1 -2.6)"/><path class="cls-4" d="M34.81,33.19" transform="translate(-2.1 -2.6)"/></svg>