<svg id="Layer_1" data-name="Layer 1" xmlns="http://www.w3.org/2000/svg" viewBox="0 0 35.9 35.9"><defs><style>.cls-1{fill:#600;}.cls-2,.cls-6{fill:brown;}.cls-3{fill:#fcfafa;}.cls-4{fill:#f9f9f9;}.cls-5{fill:#fff;}.cls-5,.cls-6{stroke:brown;stroke-miterlimit:10;stroke-width:0.75px;}</style></defs><title>fbi4</title><path class="cls-1" d="M20,36.5A15.95,15.95,0,1,1,36,20.55,16,16,0,0,1,20,36.5Z" transform="translate(-2.1 -2.6)"/><path class="cls-2" d="M20,6.6A13.95,13.95,0,1,1,6.1,20.55,14,14,0,0,1,20,6.6m0-4A17.95,17.95,0,1,0,38,20.55,17.95,17.95,0,0,0,20,2.6Z" transform="translate(-2.1 -2.6)"/><path class="cls-2" d="M17.58,36.09a1,1,0,0,1-.3,0,1.07,1.07,0,0,1-.61-.59,1.29,1.29,0,0,1-.1-.56c0-.11,0-.24,0-.4,0-.49-.07-.91-.09-1.25,0-.77,0-1.42,0-1.91s0-.85,0-1.39c0-.26,0-.44,0-.58a6.23,6.23,0,0,0,0-.65,8.12,8.12,0,0,0-.13-1.28,7.38,7.38,0,0,0-.25-.94c-.13-.41-.25-.82-.37-1.23s-.21-.71-.32-1.06c-.29-.91-.53-1.62-.72-2.19-.53-1.56-.67-2-.41-2.36A2,2,0,0,1,16,19a3,3,0,0,1,1.74.51,1.51,1.51,0,0,1,.68.93.75.75,0,0,1-.13.51,4.75,4.75,0,0,0-.33.8,8.43,8.43,0,0,0-.31,1.77c0,.25,0,.48,0,.69l0,.38c0,.42,0,.75,0,.79a8.15,8.15,0,0,0,.15,1.39c0,.08.29,2.16.29,2.16.2,1.48.29,2.69.37,3.86l0,.71c0,.36,0,.72.08,1.08,0,.14,0,.25,0,.36,0,.32.06.49,0,.66A1.06,1.06,0,0,1,17.58,36.09Z" transform="translate(-2.1 -2.6)"/><path class="cls-3" d="M16,19.14h0a2.93,2.93,0,0,1,1.66.49,1.4,1.4,0,0,1,.63.85c0,.15,0,.22-.12.44a4.83,4.83,0,0,0-.33.82,8.5,8.5,0,0,0-.31,1.8c0,.26,0,.49,0,.71s0,.26,0,.37c0,.42,0,.75,0,.8a8.5,8.5,0,0,0,.15,1.45c0,.05.1.74.28,2.12s.29,2.69.37,3.86c0,.24,0,.47,0,.71s0,.72.08,1.08c0,.14,0,.26,0,.36,0,.33,0,.45,0,.58a.94.94,0,0,1-.78.41.82.82,0,0,1-.26,0,1,1,0,0,1-.53-.52,1.17,1.17,0,0,1-.09-.51c0-.11,0-.24,0-.4,0-.49-.07-.91-.09-1.24,0-.64,0-1.28,0-1.91,0-.45,0-.84,0-1.38,0-.26,0-.43,0-.57a6.42,6.42,0,0,0,0-.66,8.14,8.14,0,0,0-.13-1.3,7.6,7.6,0,0,0-.25-1c-.13-.4-.25-.81-.37-1.22s-.21-.71-.32-1.06c-.29-.91-.53-1.62-.72-2.19-.53-1.55-.64-1.93-.42-2.24a1.91,1.91,0,0,1,1.55-.6m0-.25a2.14,2.14,0,0,0-1.76.7c-.41.58,0,1.21,1.11,4.66.24.76.44,1.53.69,2.28a7.28,7.28,0,0,1,.24.93,7.78,7.78,0,0,1,.13,1.26c0,.42,0,.52,0,1.22,0,.54,0,.94,0,1.39s0,1.15,0,1.92c0,.34.05.76.09,1.25a2.73,2.73,0,0,0,.13,1,1.23,1.23,0,0,0,.68.65,1.07,1.07,0,0,0,.35.06,1.18,1.18,0,0,0,1-.53c.16-.27.07-.51,0-1.09s-.08-1.19-.12-1.78c-.09-1.18-.18-2.39-.37-3.88s-.27-2.09-.28-2.12a8.3,8.3,0,0,1-.15-1.41s0-.37,0-.79c0-.11,0-.23,0-.36s0-.44,0-.7a8.24,8.24,0,0,1,.3-1.75c.27-.86.52-.95.46-1.37a1.63,1.63,0,0,0-.73-1A3.16,3.16,0,0,0,16,18.89Z" transform="translate(-2.1 -2.6)"/><path class="cls-2" d="M17.63,36.1a1,1,0,0,1-.42-.09c-.47-.23-.59-.91-.67-1.53a30.12,30.12,0,0,1-.15-4.54,12,12,0,0,0-.16-3.08c-.27-1-.56-1.92-.56-1.92l-1.16-3.49a3.51,3.51,0,0,0-.13-.37,4,4,0,0,0-.41-.73,6.44,6.44,0,0,0,.7-4.39,5.88,5.88,0,0,1,.09-2.67A4,4,0,0,1,18,10.2,5.16,5.16,0,0,1,19.23,10a6,6,0,0,1,1.94.34,6.08,6.08,0,0,1,2.21,1.3,5.93,5.93,0,0,1,1,1.25l-.15.95-.05.41a4.72,4.72,0,0,0-1.28-2,4.61,4.61,0,0,0-2.25-1.12,4.23,4.23,0,0,0-.73-.06,4.71,4.71,0,0,0-2.71.9A3.69,3.69,0,0,0,16,13.32a3.62,3.62,0,0,0-.42,1.55A4.83,4.83,0,0,0,16,16.92a7.39,7.39,0,0,0,.6,1.29,4,4,0,0,0,.67.92,4.56,4.56,0,0,0,.82.62c.2.12.37.22.52.29a6.58,6.58,0,0,0-.47,1.09,9.84,9.84,0,0,0-.35,3.15c0,.43,0,.88,0,1.34v.11c0,.13,0,.33,0,.58a9.1,9.1,0,0,0,.11,1.39c0,.31.17,1.33.2,1.58.15,1.09.27,2,.38,3.16,0,.5.06.7.06.85s0,.25,0,.54a7.64,7.64,0,0,1,.07,1.2,1.4,1.4,0,0,1-.1.67A1,1,0,0,1,17.63,36.1Z" transform="translate(-2.1 -2.6)"/><path class="cls-4" d="M19.23,10.17a6.24,6.24,0,0,1,4.06,1.61,5.81,5.81,0,0,1,1,1.15l-.11.86A4.78,4.78,0,0,0,23,12.22a4.73,4.73,0,0,0-2.31-1.16A4.38,4.38,0,0,0,20,11a4.83,4.83,0,0,0-2.78.92,3.8,3.8,0,0,0-1.26,1.34,3.74,3.74,0,0,0-.44,1.6A5,5,0,0,0,15.86,17a7.57,7.57,0,0,0,.6,1.29,4.12,4.12,0,0,0,.69.95,4.6,4.6,0,0,0,.85.64l.42.24a6.63,6.63,0,0,0-.42,1,9.94,9.94,0,0,0-.36,3.19c0,.43,0,.87,0,1.33v.11c0,.14,0,.34,0,.58a9.14,9.14,0,0,0,.11,1.4v.06c0,.25.07.51.1.76s.06.52.1.77c.15,1.1.27,2,.38,3.15,0,.5.06.7.06.85s0,.25,0,.55v.07A7.12,7.12,0,0,1,18.44,35a1.42,1.42,0,0,1-.08.6.9.9,0,0,1-.73.32.85.85,0,0,1-.37-.08c-.41-.2-.52-.84-.6-1.43a30.1,30.1,0,0,1-.15-4.52,12.1,12.1,0,0,0-.16-3.11c-.26-1-.55-1.89-.56-1.93l-.13-.38-.35-1.07,0-.05L15,22.61l-.14-.41-.11-.31-.16-.48A3.75,3.75,0,0,0,14.5,21a4.18,4.18,0,0,0-.38-.69,6.57,6.57,0,0,0,.68-4.4,5.78,5.78,0,0,1,.09-2.62,3.93,3.93,0,0,1,3.09-3,5,5,0,0,1,1.25-.16m0-.25a5.27,5.27,0,0,0-1.31.16,4.17,4.17,0,0,0-3.27,3.17c-.62,2.14.4,3.2-.16,5.44a6.62,6.62,0,0,1-.67,1.66,4,4,0,0,1,.44.77c.07.17.08.22.29.84l.24.72.28.84L15.56,25s.29.91.56,1.92c.42,1.57-.11,4.23.3,7.61.07.6.19,1.36.73,1.63a1.1,1.1,0,0,0,.48.1,1.14,1.14,0,0,0,.94-.44,1.45,1.45,0,0,0,.12-.73,7.7,7.7,0,0,0-.07-1.21c-.07-.58,0-.4-.11-1.39-.1-1.14-.23-2.07-.38-3.17-.07-.51-.13-1-.2-1.53a9.23,9.23,0,0,1-.12-1.43c0-.33,0-.56,0-.68a16.49,16.49,0,0,1,.37-4.46A6.41,6.41,0,0,1,18.75,20a6.15,6.15,0,0,1-.62-.34,4.39,4.39,0,0,1-.8-.61,3.88,3.88,0,0,1-.65-.9,7.25,7.25,0,0,1-.58-1.25,4.76,4.76,0,0,1-.38-2,3.5,3.5,0,0,1,.41-1.5,3.56,3.56,0,0,1,1.19-1.25A4.68,4.68,0,0,1,20,11.25a4.11,4.11,0,0,1,.71.06,4.45,4.45,0,0,1,2.19,1.09,4.67,4.67,0,0,1,1.41,2.53l.26-2.06a6.06,6.06,0,0,0-1-1.28,6.22,6.22,0,0,0-2.26-1.33,6.13,6.13,0,0,0-2-.35Z" transform="translate(-2.1 -2.6)"/><path class="cls-2" d="M8.77,21.47a21.43,21.43,0,0,1,3.45-1.06,21.05,21.05,0,0,1,4.46-.48c.93,0,1.67.06,2.07.1a23.53,23.53,0,0,1,5.19,1l0,1.85a3.28,3.28,0,0,0-1-1.29,4.12,4.12,0,0,0-1.61-.68,2.94,2.94,0,0,0-.64-.09,7.33,7.33,0,0,1-.93-.1l-.56-.1a3.67,3.67,0,0,0-.75-.09h-.21a2.75,2.75,0,0,0-1,.26,1.45,1.45,0,0,0-.38.26.42.42,0,0,1-.17.11l-.16,0a1.35,1.35,0,0,1-.65-.28,3.14,3.14,0,0,0-.93-.44,1.33,1.33,0,0,0-.33,0,8.8,8.8,0,0,0-2.62.79,4.63,4.63,0,0,0-1.41.74,4,4,0,0,0-.86,1Z" transform="translate(-2.1 -2.6)"/><path class="cls-4" d="M16.68,19.8v.25c.93,0,1.67.06,2.06.09a23.29,23.29,0,0,1,5.07,1l0,.94v.34a3.28,3.28,0,0,0-.81-.9,4.22,4.22,0,0,0-1.66-.7,3.06,3.06,0,0,0-.66-.09,7.19,7.19,0,0,1-.92-.1l-.56-.1a3.81,3.81,0,0,0-.78-.1h-.22a2.88,2.88,0,0,0-1.09.28,1.56,1.56,0,0,0-.4.28.29.29,0,0,1-.13.08l-.12,0a1.26,1.26,0,0,1-.58-.26,3.3,3.3,0,0,0-1-.45,1.46,1.46,0,0,0-.36,0,8.82,8.82,0,0,0-2.66.8,4.8,4.8,0,0,0-1.44.76,4.07,4.07,0,0,0-.77.83l-.34-.59-.35-.61a21.24,21.24,0,0,1,3.29-1,20.91,20.91,0,0,1,4.44-.47V19.8m0,0a21.14,21.14,0,0,0-4.49.48,21.44,21.44,0,0,0-3.6,1.13l1,1.81a3.89,3.89,0,0,1,.94-1.12,4.58,4.58,0,0,1,1.38-.72,8.91,8.91,0,0,1,2.57-.79,1.22,1.22,0,0,1,.3,0c.74.19,1.14.72,1.61.72a.64.64,0,0,0,.2,0c.22-.07.19-.19.56-.37a2.57,2.57,0,0,1,1-.25h.2a8.7,8.7,0,0,1,1.3.19c1,.16,1,0,1.56.19a4,4,0,0,1,1.56.66A3.4,3.4,0,0,1,24,23.59L24.06,21a23.54,23.54,0,0,0-5.3-1.07c-.46,0-1.18-.1-2.08-.1Z" transform="translate(-2.1 -2.6)"/><path class="cls-5" d="M23.44,28.69" transform="translate(-2.1 -2.6)"/><path class="cls-6" d="M14.19,26.63" transform="translate(-2.1 -2.6)"/><path class="cls-6" d="M34.81,33.19" transform="translate(-2.1 -2.6)"/></svg>