<svg id="Layer_1" data-name="Layer 1" xmlns="http://www.w3.org/2000/svg" viewBox="0 0 21.4 26.51"><defs><style>.cls-1{fill:#fff;}.cls-2{fill:#600;}.cls-3{fill:#f9f9f9;}</style></defs><title>fbi5</title><rect class="cls-1" x="0.5" y="0.5" width="20.4" height="4.79"/><path class="cls-2" d="M30.44,6.43v3.79H11V6.43h19.4m1-1H10v5.79h21.4V5.43Z" transform="translate(-10.05 -5.43)"/><rect class="cls-1" x="0.84" y="9.53" width="19.71" height="4.03"/><path class="cls-2" d="M30.1,15.47v3H11.39v-3H30.1m1-1H10.39v5H31.1v-5Z" transform="translate(-10.05 -5.43)"/><rect class="cls-1" x="0.5" y="0.5" width="5.11" height="25.51"/><path class="cls-2" d="M15.16,6.43V30.94H11V6.43h4.11m1-1H10V31.94h6.11V5.43Z" transform="translate(-10.05 -5.43)"/><rect class="cls-1" x="5.11" y="1.5" width="0.78" height="2.79"/><polygon class="cls-3" points="6.39 1 4.61 1 4.61 4.79 6.39 4.79 6.39 1 6.39 1"/><rect class="cls-1" x="5.25" y="10.53" width="0.78" height="2.04"/><polygon class="cls-3" points="6.53 10.03 4.75 10.03 4.75 13.07 6.53 13.07 6.53 10.03 6.53 10.03"/></svg>